# xmcd
#
# Track frame offsets: 
#        150
#        10672
#        23822
#        56320
#        74137
#        91780
#        107127
#        117380
#        129827
#        143507
#        153630
#
# Disc length: 2637 seconds
#
# Revision: 6
# Processed by: cddbd v1.5.2PL0 Copyright (c) Steve Scherf et al.
# Submitted via: ExactAudioCopyFreeDBPlugin 1.0
#
DISCID=890a4b0b
DTITLE=Buddy Guy - 20th Century Masters
DYEAR=2001
DGENRE=Blues
TTITLE0=First Time I Met The Blues
TTITLE1=Let Me Love You Baby
TTITLE2=Stone Crazy
TTITLE3=Pretty Baby
TTITLE4=When My Left Eye Jumps
TTITLE5=Leave My Girl Alone
TTITLE6=She Suits Me To A Tee
TTITLE7=Keep It To Myself (aka Keep It To Yourself)
TTITLE8=My Time After Awhile
TTITLE9=Too Many Ways
TTITLE10=Talkin 'Bout Women Obviously
EXTD=YEAR: 2011
EXTT0=
EXTT1=
EXTT2=
EXTT3=
EXTT4=
EXTT5=
EXTT6=
EXTT7=
EXTT8=
EXTT9=
EXTT10=
PLAYORDER=
